# xmcd
#
# Track frame offsets: 
#        150
#        17117
#        35955
#        52105
#        65150
#        78524
#        107828
#        127810
#        148141
#        149107
#        165171
#        183582
#        195812
#        215659
#        239883
#
# Disc length: 3475 seconds
#
# Revision: 0
# Processed by: cddbd v1.5.2PL0 Copyright (c) Steve Scherf et al.
# Submitted via: ExactAudioCopy v1.0b4
#
DISCID=ec0d910f
DTITLE=Skyla Burrell Blues Band - Livin' Day To Day
DYEAR=2006
DGENRE=Electric Blues, Rockin' Blues
TTITLE0=Little Bit Of Your Love
TTITLE1=Too Much
TTITLE2=Dirt Poor
TTITLE3=Rockin' In Memphis
TTITLE4=Fly Cat Daddy
TTITLE5=I'm Going Down
TTITLE6=Livin' Day To Day
TTITLE7=Play Me Like A Fool
TTITLE8=Play Me Like A Fool
TTITLE9=Low Down Dirty Game
TTITLE10=Come In
TTITLE11=Two Time Dirty Dog
TTITLE12=Need Your Love Baby
TTITLE13=Don't Let Me Go
TTITLE14=Shot In The Dark
EXTD=
EXTT0=
EXTT1=
EXTT2=
EXTT3=
EXTT4=
EXTT5=
EXTT6=
EXTT7=
EXTT8=
EXTT9=
EXTT10=
EXTT11=
EXTT12=
EXTT13=
EXTT14=
PLAYORDER=
